<svg width="18" height="18" viewBox="0 0 18 18" fill="none" xmlns="http://www.w3.org/2000/svg">
  <path d="M6 0C2.6883 0 0 2.6883 0 6V12C0 15.3117 2.6883 18 6 18H12C15.3117 18 18 15.3117 18 12V6C18 2.6883 15.3117 0 12 0H6ZM14 3C14.5523 3 15 3.4477 15 4C15 4.5523 14.5523 5 14 5C13.4477 5 13 4.5523 13 4C13 3.4477 13.4477 3 14 3ZM9 4.5C11.4853 4.5 13.5 6.5147 13.5 9C13.5 11.4853 11.4853 13.5 9 13.5C6.5147 13.5 4.5 11.4853 4.5 9C4.5 6.5147 6.5147 4.5 9 4.5ZM9 6C8.2044 6 7.4413 6.3161 6.8787 6.8787C6.3161 7.4413 6 8.2044 6 9C6 9.7956 6.3161 10.5587 6.8787 11.1213C7.4413 11.6839 8.2044 12 9 12C9.7956 12 10.5587 11.6839 11.1213 11.1213C11.6839 10.5587 12 9.7956 12 9C12 8.2044 11.6839 7.4413 11.1213 6.8787C10.5587 6.3161 9.7956 6 9 6Z" fill="white"/>
</svg> 